<?xml version="1.0" standalone="no"?>
<!DOCTYPE svg PUBLIC "-//W3C//DTD SVG 20010904//EN"
 "http://www.w3.org/TR/2001/REC-SVG-20010904/DTD/svg10.dtd">
<svg version="1.0" xmlns="http://www.w3.org/2000/svg"
 width="384.000000pt" height="384.000000pt" viewBox="0 0 384.000000 384.000000"
 preserveAspectRatio="xMidYMid meet">

<g transform="translate(0.000000,384.000000) scale(0.100000,-0.100000)"
fill="#000000" stroke="none">
<path d="M725 3161 c-212 -35 -381 -139 -500 -306 -94 -133 -129 -238 -129
-385 0 -208 69 -358 204 -449 114 -75 262 -107 404 -86 108 16 200 53 204 81
5 32 -24 37 -82 16 -137 -51 -291 -54 -390 -7 -82 39 -159 114 -198 192 -28
58 -33 79 -36 163 -7 159 31 254 139 355 103 94 201 133 361 142 122 7 222 -6
343 -44 91 -29 299 -130 394 -191 35 -23 72 -42 81 -42 9 0 41 18 71 41 30 22
121 88 202 146 82 58 151 112 154 120 12 30 -13 36 -83 18 -99 -25 -145 -15
-315 65 -161 75 -283 121 -404 151 -90 22 -336 34 -420 20z"/>
<path d="M2621 3134 c-234 -63 -433 -326 -495 -654 -38 -197 -30 -406 20 -558
81 -243 275 -495 471 -611 261 -154 642 -146 953 20 202 108 263 210 82 138
-190 -76 -357 -90 -534 -45 -402 102 -648 439 -687 940 -24 320 79 619 238
688 53 23 139 27 192 9 41 -13 103 -73 118 -114 21 -55 15 -71 -45 -108 -144
-88 -177 -112 -220 -154 -53 -54 -94 -134 -94 -187 0 -103 71 -208 285 -421
131 -131 170 -176 191 -221 39 -86 31 -113 -68 -209 -76 -75 -92 -107 -53
-107 8 0 41 14 73 32 162 90 315 216 353 290 60 118 -23 265 -299 525 -218
206 -240 277 -124 396 112 116 194 116 430 1 l93 -45 62 54 c34 30 96 87 137
125 70 65 74 71 59 87 -13 14 -21 15 -38 6 -25 -14 -77 -17 -111 -6 -13 4 -73
35 -134 67 -143 79 -159 79 -234 7 -58 -57 -173 -149 -185 -149 -3 0 -18 25
-32 55 -33 69 -102 130 -168 150 -63 19 -165 18 -236 -1z"/>
<path d="M1036 2649 c-123 -129 -172 -220 -163 -302 10 -98 70 -206 244 -440
85 -115 161 -249 193 -341 31 -92 34 -160 11 -250 -40 -153 -107 -246 -210
-295 -49 -23 -69 -26 -156 -26 -113 0 -160 13 -211 57 -68 60 -79 174 -35 358
12 47 21 108 21 135 -1 127 -95 210 -284 249 -97 20 -130 20 -146 1 -18 -22 2
-41 49 -49 49 -8 91 -54 91 -99 0 -18 -14 -79 -32 -137 -43 -146 -44 -241 -4
-325 81 -165 281 -265 528 -265 171 0 288 40 423 143 169 129 262 305 272 514
8 153 -14 233 -105 397 l-45 79 24 18 c50 39 111 17 187 -66 22 -25 47 -45 55
-45 8 0 41 33 73 73 32 39 75 91 96 114 21 24 38 49 38 56 0 8 -41 50 -91 93
-116 101 -149 124 -163 118 -11 -6 -171 -198 -215 -260 -13 -19 -31 -34 -40
-34 -9 0 -35 26 -58 58 -22 31 -89 116 -147 187 -140 171 -150 210 -84 309 16
26 27 53 24 61 -12 33 -47 12 -140 -86z"/>
</g>
</svg>
